<?xml version="1.0" encoding="UTF-8" standalone="no"?><!DOCTYPE svg PUBLIC "-//W3C//DTD SVG 1.1//EN" "http://www.w3.org/Graphics/SVG/1.1/DTD/svg11.dtd"><svg width="100%" height="100%" viewBox="0 0 267 267" version="1.1" xmlns="http://www.w3.org/2000/svg" xmlns:xlink="http://www.w3.org/1999/xlink" xml:space="preserve" xmlns:serif="http://www.serif.com/" style="fill-rule:evenodd;clip-rule:evenodd;stroke-linejoin:round;stroke-miterlimit:2;"><rect id="Moon" x="-0" y="-0" width="266.667" height="266.667" style="fill:#fff;"/><path d="M94.673,54.758c1.425,-0.861 3.228,-0.776 4.566,0.215c1.337,0.991 1.944,2.691 1.535,4.305c-1.661,6.977 -2.564,14.258 -2.564,21.749c0,50.432 40.945,91.378 91.378,91.378c7.548,-0 14.883,-0.917 21.902,-2.647c1.63,-0.419 3.352,0.189 4.357,1.54c1.005,1.351 1.093,3.175 0.223,4.616c-15.648,24.314 -42.937,40.45 -73.966,40.45c-48.439,0 -87.766,-39.326 -87.766,-87.766c0,-30.97 16.076,-58.215 40.335,-73.84Z"/></svg>