<?xml version="1.0" encoding="UTF-8" standalone="no"?><!DOCTYPE svg PUBLIC "-//W3C//DTD SVG 1.1//EN" "http://www.w3.org/Graphics/SVG/1.1/DTD/svg11.dtd"><svg width="100%" height="100%" viewBox="0 0 267 267" version="1.1" xmlns="http://www.w3.org/2000/svg" xmlns:xlink="http://www.w3.org/1999/xlink" xml:space="preserve" xmlns:serif="http://www.serif.com/" style="fill-rule:evenodd;clip-rule:evenodd;stroke-linejoin:round;stroke-miterlimit:2;"><rect id="Sun" x="-0" y="-0" width="266.667" height="266.667" style="fill:#fff;"/><circle cx="133.358" cy="133.358" r="75.025"/><path d="M133.333,33.333c-7.27,4.955 -13.349,11.088 -18.239,18.402c-2.279,0.509 -4.536,1.114 -6.764,1.812c-7.891,-3.888 -16.224,-6.161 -24.997,-6.816c-3.818,7.925 -6.017,16.277 -6.595,25.056c-1.719,1.58 -3.371,3.232 -4.951,4.951c-8.779,0.578 -17.131,2.777 -25.056,6.595c0.655,8.773 2.928,17.106 6.816,24.997c-0.698,2.228 -1.303,4.485 -1.812,6.764c-7.314,4.89 -13.447,10.969 -18.402,18.239c4.955,7.27 11.088,13.35 18.402,18.24c0.509,2.279 1.114,4.535 1.812,6.764c-3.888,7.891 -6.161,16.223 -6.816,24.996c7.925,3.819 16.277,6.017 25.056,6.595c1.58,1.719 3.232,3.371 4.951,4.952c0.578,8.778 2.777,17.13 6.595,25.056c8.773,-0.656 17.106,-2.928 24.997,-6.817c2.228,0.699 4.485,1.303 6.764,1.813c4.89,7.313 10.969,13.447 18.239,18.401c7.27,-4.954 13.35,-11.088 18.24,-18.401c2.279,-0.51 4.535,-1.114 6.764,-1.813c7.891,3.889 16.223,6.161 24.996,6.817c3.819,-7.926 6.017,-16.278 6.595,-25.056c1.719,-1.581 3.371,-3.233 4.952,-4.952c8.778,-0.578 17.13,-2.776 25.056,-6.595c-0.656,-8.773 -2.928,-17.105 -6.817,-24.996c0.699,-2.229 1.303,-4.485 1.813,-6.764c7.313,-4.89 13.447,-10.97 18.401,-18.24c-4.954,-7.27 -11.088,-13.349 -18.401,-18.239c-0.51,-2.279 -1.114,-4.536 -1.813,-6.764c3.889,-7.891 6.161,-16.224 6.817,-24.997c-7.926,-3.818 -16.278,-6.017 -25.056,-6.595c-1.581,-1.719 -3.233,-3.371 -4.952,-4.951c-0.578,-8.779 -2.776,-17.131 -6.595,-25.056c-8.773,0.655 -17.105,2.928 -24.996,6.816c-2.229,-0.698 -4.485,-1.303 -6.764,-1.812c-4.89,-7.314 -10.97,-13.447 -18.24,-18.402Zm0,20.322c43.976,0 79.679,35.703 79.679,79.678c-0,43.976 -35.703,79.679 -79.679,79.679c-43.975,-0 -79.678,-35.703 -79.678,-79.679c0,-43.975 35.703,-79.678 79.678,-79.678Z"/></svg>